<svg width="67" height="25" viewBox="0 0 67 25" fill="none" xmlns="http://www.w3.org/2000/svg">
<rect x="0.25" y="0.25" width="66.5" height="24.5" rx="12.25" stroke="white" stroke-width="0.5"/>
<path d="M31 7L25 13M31 7V10.375M31 7H27.625M30.25 13.375V16.6C30.25 17.4401 30.25 17.8602 30.0865 18.181C29.9427 18.4632 29.7132 18.6927 29.431 18.8365C29.1102 19 28.6901 19 27.85 19H21.4C20.5599 19 20.1399 19 19.819 18.8365C19.5368 18.6927 19.3073 18.4632 19.1635 18.181C19 17.8602 19 17.4401 19 16.6V10.15C19 9.30992 19 8.88988 19.1635 8.56902C19.3073 8.28677 19.5368 8.0573 19.819 7.91349C20.1399 7.75 20.5599 7.75 21.4 7.75H24.625" stroke="white" stroke-linecap="round" stroke-linejoin="round"/>
<path fill-rule="evenodd" clip-rule="evenodd" d="M42.5 12.5C42.5 11.1883 43.5633 10.125 44.875 10.125C46.1867 10.125 47.25 11.1883 47.25 12.5C47.25 13.8117 46.1867 14.875 44.875 14.875C43.5633 14.875 42.5 13.8117 42.5 12.5Z" fill="#1ABCFE"/>
<path fill-rule="evenodd" clip-rule="evenodd" d="M37.75 17.25C37.75 15.9383 38.8133 14.875 40.125 14.875H42.5V17.25C42.5 18.5617 41.4367 19.625 40.125 19.625C38.8133 19.625 37.75 18.5617 37.75 17.25Z" fill="#0ACF83"/>
<path fill-rule="evenodd" clip-rule="evenodd" d="M42.5 5.375V10.125H44.875C46.1867 10.125 47.25 9.06165 47.25 7.75C47.25 6.43832 46.1867 5.375 44.875 5.375H42.5Z" fill="#FF7262"/>
<path fill-rule="evenodd" clip-rule="evenodd" d="M37.75 7.75C37.75 9.06165 38.8133 10.125 40.125 10.125H42.5V5.375H40.125C38.8133 5.375 37.75 6.43832 37.75 7.75Z" fill="#F24E1E"/>
<path fill-rule="evenodd" clip-rule="evenodd" d="M37.75 12.5C37.75 13.8117 38.8133 14.875 40.125 14.875H42.5V10.125H40.125C38.8133 10.125 37.75 11.1883 37.75 12.5Z" fill="#A259FF"/>
</svg>
