<svg width="67" height="25" viewBox="0 0 67 25" fill="none" xmlns="http://www.w3.org/2000/svg">
<rect x="0.25" y="0.25" width="66.5" height="24.5" rx="12.25" stroke="white" stroke-width="0.5"/>
<g clip-path="url(#clip0_91_61)">
<path fill-rule="evenodd" clip-rule="evenodd" d="M44 5C48.4184 5 52 8.44245 52 12.6897C52 16.0864 49.7104 18.968 46.5336 19.9857C46.128 20.0615 45.984 19.8213 45.984 19.6166C45.984 19.3631 45.9936 18.5351 45.9936 17.5061C45.9936 16.7891 45.7376 16.3211 45.4504 16.0826C47.232 15.8921 49.104 15.2418 49.104 12.2883C49.104 11.4483 48.7936 10.7629 48.28 10.2244C48.3632 10.0301 48.6376 9.24796 48.2016 8.18896C48.2016 8.18896 47.5312 7.98292 46.004 8.97742C45.3648 8.80717 44.68 8.72151 44 8.71851C43.32 8.72151 42.636 8.80717 41.9976 8.97742C40.4688 7.98292 39.7968 8.18896 39.7968 8.18896C39.3624 9.24796 39.6368 10.0301 39.7192 10.2244C39.208 10.7629 38.8952 11.4483 38.8952 12.2883C38.8952 15.2343 40.7632 15.8946 42.54 16.0889C42.3112 16.2809 42.104 16.6196 42.032 17.1168C41.576 17.3133 40.4176 17.6534 39.704 16.4781C39.704 16.4781 39.2808 15.7393 38.4776 15.6853C38.4776 15.6853 37.6976 15.6756 38.4232 16.1526C38.4232 16.1526 38.9472 16.3888 39.3112 17.2776C39.3112 17.2776 39.7808 18.6501 42.0064 18.1851C42.0104 18.8278 42.0176 19.4336 42.0176 19.6166C42.0176 19.8198 41.8704 20.0577 41.4712 19.9865C38.292 18.9702 36 16.0872 36 12.6897C36 8.44245 39.5824 5 44 5Z" fill="#DFFFF7"/>
</g>
<path d="M31 7L25 13M31 7V10.375M31 7H27.625M30.25 13.375V16.6C30.25 17.4401 30.25 17.8602 30.0865 18.181C29.9427 18.4632 29.7132 18.6927 29.431 18.8365C29.1102 19 28.6901 19 27.85 19H21.4C20.5599 19 20.1399 19 19.819 18.8365C19.5368 18.6927 19.3073 18.4632 19.1635 18.181C19 17.8602 19 17.4401 19 16.6V10.15C19 9.30992 19 8.88988 19.1635 8.56902C19.3073 8.28677 19.5368 8.0573 19.819 7.91349C20.1399 7.75 20.5599 7.75 21.4 7.75H24.625" stroke="white" stroke-linecap="round" stroke-linejoin="round"/>
<defs>
<clipPath id="clip0_91_61">
<rect width="16" height="15" fill="white" transform="translate(36 5)"/>
</clipPath>
</defs>
</svg>
