<svg width="94" height="25" viewBox="0 0 94 25" fill="none" xmlns="http://www.w3.org/2000/svg">
<rect x="0.25" y="0.25" width="93.5" height="24.5" rx="12.25" stroke="white" stroke-width="0.5"/>
<path d="M40.04 13.9395L39.8936 16H34.4785V15.6533C34.5566 15.6468 34.6689 15.6354 34.8154 15.6191C34.9652 15.6029 35.0693 15.5817 35.1279 15.5557C35.2256 15.5133 35.2956 15.4515 35.3379 15.3701C35.3835 15.2887 35.4062 15.1846 35.4062 15.0576V10.0967C35.4062 9.986 35.3867 9.88835 35.3477 9.80371C35.3118 9.71908 35.2386 9.65072 35.1279 9.59863C35.0531 9.55957 34.9473 9.52214 34.8105 9.48633C34.6771 9.44727 34.5664 9.42448 34.4785 9.41797V9.07129H37.4033V9.41797C37.3122 9.42122 37.1934 9.4375 37.0469 9.4668C36.9036 9.49609 36.7995 9.52214 36.7344 9.54492C36.6237 9.58398 36.5472 9.65072 36.5049 9.74512C36.4658 9.83952 36.4463 9.94043 36.4463 10.0479V14.7012C36.4463 14.916 36.4561 15.0837 36.4756 15.2041C36.4984 15.3213 36.5488 15.4124 36.627 15.4775C36.7018 15.5361 36.8125 15.5752 36.959 15.5947C37.1087 15.611 37.3171 15.6191 37.584 15.6191C37.7044 15.6191 37.8298 15.6159 37.96 15.6094C38.0902 15.6029 38.2139 15.5898 38.3311 15.5703C38.445 15.5508 38.5492 15.5247 38.6436 15.4922C38.7412 15.4564 38.8128 15.4124 38.8584 15.3604C38.9919 15.2106 39.1465 14.9844 39.3223 14.6816C39.5013 14.3757 39.625 14.1283 39.6934 13.9395H40.04ZM42.7256 16H40.3965V15.6777C40.4714 15.6712 40.5479 15.6647 40.626 15.6582C40.7074 15.6517 40.7773 15.6387 40.8359 15.6191C40.9271 15.5898 40.9938 15.5394 41.0361 15.4678C41.0817 15.3929 41.1045 15.2969 41.1045 15.1797V12.2061C41.1045 12.1019 41.0801 12.0075 41.0312 11.9229C40.9857 11.835 40.9206 11.7617 40.8359 11.7031C40.7741 11.6641 40.6846 11.6315 40.5674 11.6055C40.4502 11.5762 40.3428 11.5583 40.2451 11.5518V11.2344L41.9443 11.127L42.0127 11.1953V15.1211C42.0127 15.235 42.0339 15.3294 42.0762 15.4043C42.1217 15.4792 42.1917 15.5345 42.2861 15.5703C42.3577 15.5996 42.4277 15.624 42.4961 15.6436C42.5645 15.6598 42.641 15.6712 42.7256 15.6777V16ZM42.1104 9.22754C42.1104 9.41309 42.0485 9.57585 41.9248 9.71582C41.8044 9.85254 41.6546 9.9209 41.4756 9.9209C41.3096 9.9209 41.1647 9.85579 41.041 9.72559C40.9206 9.59212 40.8604 9.44076 40.8604 9.27148C40.8604 9.09245 40.9206 8.9362 41.041 8.80273C41.1647 8.66927 41.3096 8.60254 41.4756 8.60254C41.6611 8.60254 41.8125 8.66602 41.9297 8.79297C42.0501 8.91667 42.1104 9.06152 42.1104 9.22754ZM48.0723 11.4834C47.9258 11.5094 47.7858 11.5632 47.6523 11.6445C47.5221 11.7227 47.4098 11.8626 47.3154 12.0645C47.1234 12.5007 46.9248 12.9564 46.7197 13.4316C46.5146 13.9036 46.3014 14.4001 46.0801 14.9209C46.015 15.0706 45.945 15.248 45.8701 15.4531C45.7985 15.6582 45.7318 15.8551 45.6699 16.0439H45.2891C44.9798 15.279 44.695 14.5824 44.4346 13.9541C44.1742 13.3226 43.904 12.6764 43.624 12.0156C43.5589 11.8659 43.4531 11.7503 43.3066 11.6689C43.1634 11.5843 43.0186 11.5306 42.8721 11.5078V11.1855H45.0986V11.5273C45.001 11.5306 44.8789 11.5518 44.7324 11.5908C44.5859 11.6266 44.5127 11.6771 44.5127 11.7422C44.5127 11.752 44.5208 11.778 44.5371 11.8203C44.5534 11.8594 44.5697 11.9049 44.5859 11.957C44.7194 12.2891 44.9082 12.7529 45.1523 13.3486C45.3965 13.9443 45.5951 14.4245 45.748 14.7891C45.8652 14.5091 46.0117 14.1608 46.1875 13.7441C46.3665 13.3275 46.5586 12.862 46.7637 12.3477C46.7962 12.2598 46.8271 12.1784 46.8564 12.1035C46.8857 12.0254 46.9004 11.9473 46.9004 11.8691C46.9004 11.8138 46.8727 11.765 46.8174 11.7227C46.7653 11.6771 46.7018 11.638 46.627 11.6055C46.5521 11.5729 46.4788 11.5485 46.4072 11.5322C46.3356 11.516 46.277 11.5046 46.2314 11.498V11.1855H48.0723V11.4834ZM52.5645 14.8672C52.3626 15.2513 52.0924 15.5573 51.7539 15.7852C51.4154 16.013 51.0264 16.127 50.5869 16.127C50.1995 16.127 49.8594 16.0586 49.5664 15.9219C49.2767 15.7852 49.0374 15.5996 48.8486 15.3652C48.6598 15.1309 48.5182 14.8574 48.4238 14.5449C48.3327 14.2324 48.2871 13.902 48.2871 13.5537C48.2871 13.2412 48.3359 12.9352 48.4336 12.6357C48.5345 12.333 48.681 12.0612 48.873 11.8203C49.0586 11.5892 49.2881 11.4036 49.5615 11.2637C49.8382 11.1204 50.1475 11.0488 50.4893 11.0488C50.8408 11.0488 51.1419 11.1042 51.3926 11.2148C51.6432 11.3255 51.8467 11.4769 52.0029 11.6689C52.1527 11.8512 52.2633 12.0661 52.335 12.3135C52.4098 12.5609 52.4473 12.8294 52.4473 13.1191V13.4414H49.2588C49.2588 13.7572 49.2881 14.0436 49.3467 14.3008C49.4085 14.5579 49.5046 14.7842 49.6348 14.9795C49.7617 15.1683 49.9277 15.318 50.1328 15.4287C50.3379 15.5361 50.582 15.5898 50.8652 15.5898C51.1549 15.5898 51.404 15.5231 51.6123 15.3896C51.8239 15.2529 52.0273 15.0088 52.2227 14.6572L52.5645 14.8672ZM51.4854 13.0312C51.4854 12.849 51.4691 12.6536 51.4365 12.4453C51.4072 12.237 51.3584 12.0628 51.29 11.9229C51.2152 11.7731 51.1126 11.651 50.9824 11.5566C50.8522 11.4622 50.6846 11.415 50.4795 11.415C50.1377 11.415 49.8529 11.5583 49.625 11.8447C49.4004 12.1279 49.2783 12.5234 49.2588 13.0312H51.4854ZM62.0518 9.41797C61.9671 9.42122 61.8646 9.44076 61.7441 9.47656C61.6237 9.50911 61.5244 9.5498 61.4463 9.59863C61.3356 9.66699 61.2461 9.75488 61.1777 9.8623C61.1126 9.96973 61.0475 10.0967 60.9824 10.2432C60.7643 10.7607 60.4372 11.568 60.001 12.665C59.5648 13.7588 59.1156 14.8997 58.6533 16.0879H58.248C57.7793 14.8281 57.3268 13.6139 56.8906 12.4453C56.4544 11.2767 56.1582 10.4873 56.002 10.0771C55.9629 9.97624 55.9108 9.88835 55.8457 9.81348C55.7806 9.73535 55.6943 9.66211 55.5869 9.59375C55.499 9.53841 55.4014 9.49772 55.2939 9.47168C55.1865 9.44238 55.0872 9.42448 54.9961 9.41797V9.07129H57.8623V9.41797C57.6182 9.43099 57.4115 9.4554 57.2422 9.49121C57.0762 9.52702 56.9932 9.59049 56.9932 9.68164C56.9932 9.71745 56.9997 9.75977 57.0127 9.80859C57.0257 9.85742 57.0371 9.89648 57.0469 9.92578C57.1673 10.2448 57.3626 10.7656 57.6328 11.4883C57.903 12.2077 58.2871 13.2331 58.7852 14.5645C59.0326 13.9622 59.3174 13.251 59.6396 12.4307C59.9619 11.6104 60.1784 11.0472 60.2891 10.7412C60.3965 10.445 60.4583 10.2399 60.4746 10.126C60.4941 10.012 60.5039 9.91927 60.5039 9.84766C60.5039 9.77279 60.4697 9.71094 60.4014 9.66211C60.3363 9.61003 60.2484 9.56608 60.1377 9.53027C60.0303 9.49772 59.9212 9.47331 59.8105 9.45703C59.6999 9.44076 59.5876 9.42773 59.4736 9.41797V9.07129H62.0518V9.41797ZM64.542 16H62.2129V15.6777C62.2878 15.6712 62.3643 15.6647 62.4424 15.6582C62.5238 15.6517 62.5938 15.6387 62.6523 15.6191C62.7435 15.5898 62.8102 15.5394 62.8525 15.4678C62.8981 15.3929 62.9209 15.2969 62.9209 15.1797V12.2061C62.9209 12.1019 62.8965 12.0075 62.8477 11.9229C62.8021 11.835 62.737 11.7617 62.6523 11.7031C62.5905 11.6641 62.501 11.6315 62.3838 11.6055C62.2666 11.5762 62.1592 11.5583 62.0615 11.5518V11.2344L63.7607 11.127L63.8291 11.1953V15.1211C63.8291 15.235 63.8503 15.3294 63.8926 15.4043C63.9382 15.4792 64.0081 15.5345 64.1025 15.5703C64.1742 15.5996 64.2441 15.624 64.3125 15.6436C64.3809 15.6598 64.4574 15.6712 64.542 15.6777V16ZM63.9268 9.22754C63.9268 9.41309 63.8649 9.57585 63.7412 9.71582C63.6208 9.85254 63.471 9.9209 63.292 9.9209C63.126 9.9209 62.9811 9.85579 62.8574 9.72559C62.737 9.59212 62.6768 9.44076 62.6768 9.27148C62.6768 9.09245 62.737 8.9362 62.8574 8.80273C62.9811 8.66927 63.126 8.60254 63.292 8.60254C63.4775 8.60254 63.6289 8.66602 63.7461 8.79297C63.8665 8.91667 63.9268 9.06152 63.9268 9.22754ZM69.4102 14.8672C69.2083 15.2513 68.9382 15.5573 68.5996 15.7852C68.2611 16.013 67.8721 16.127 67.4326 16.127C67.0452 16.127 66.7051 16.0586 66.4121 15.9219C66.1224 15.7852 65.8831 15.5996 65.6943 15.3652C65.5055 15.1309 65.3639 14.8574 65.2695 14.5449C65.1784 14.2324 65.1328 13.902 65.1328 13.5537C65.1328 13.2412 65.1816 12.9352 65.2793 12.6357C65.3802 12.333 65.5267 12.0612 65.7188 11.8203C65.9043 11.5892 66.1338 11.4036 66.4072 11.2637C66.6839 11.1204 66.9932 11.0488 67.335 11.0488C67.6865 11.0488 67.9876 11.1042 68.2383 11.2148C68.4889 11.3255 68.6924 11.4769 68.8486 11.6689C68.9984 11.8512 69.109 12.0661 69.1807 12.3135C69.2555 12.5609 69.293 12.8294 69.293 13.1191V13.4414H66.1045C66.1045 13.7572 66.1338 14.0436 66.1924 14.3008C66.2542 14.5579 66.3503 14.7842 66.4805 14.9795C66.6074 15.1683 66.7734 15.318 66.9785 15.4287C67.1836 15.5361 67.4277 15.5898 67.7109 15.5898C68.0007 15.5898 68.2497 15.5231 68.458 15.3896C68.6696 15.2529 68.873 15.0088 69.0684 14.6572L69.4102 14.8672ZM68.3311 13.0312C68.3311 12.849 68.3148 12.6536 68.2822 12.4453C68.2529 12.237 68.2041 12.0628 68.1357 11.9229C68.0609 11.7731 67.9583 11.651 67.8281 11.5566C67.6979 11.4622 67.5303 11.415 67.3252 11.415C66.9834 11.415 66.6986 11.5583 66.4707 11.8447C66.2461 12.1279 66.124 12.5234 66.1045 13.0312H68.3311ZM77.1396 11.498C77.0029 11.5111 76.8548 11.568 76.6953 11.6689C76.5391 11.7699 76.4251 11.9212 76.3535 12.123C76.1908 12.6016 76.0361 13.0557 75.8896 13.4854C75.7464 13.9118 75.5853 14.3919 75.4062 14.9258C75.3477 15.0951 75.2874 15.2773 75.2256 15.4727C75.167 15.668 75.1133 15.8551 75.0645 16.0342H74.6445L73.3506 12.4893L72.0469 16.0342H71.6465C71.4023 15.3115 71.1631 14.5954 70.9287 13.8857C70.6976 13.1729 70.4925 12.5527 70.3135 12.0254C70.2614 11.8724 70.1621 11.752 70.0156 11.6641C69.8691 11.5762 69.7275 11.5241 69.5908 11.5078V11.1855H71.7393V11.5273C71.6318 11.5306 71.5146 11.5485 71.3877 11.5811C71.264 11.6136 71.2021 11.6673 71.2021 11.7422C71.2021 11.7552 71.207 11.7829 71.2168 11.8252C71.2298 11.8675 71.2445 11.9131 71.2607 11.9619C71.3649 12.3037 71.4821 12.6862 71.6123 13.1094C71.7458 13.5293 71.9167 14.0762 72.125 14.75L73.3555 11.2832H73.8242L75.0791 14.7012C75.2191 14.265 75.3574 13.8434 75.4941 13.4365C75.6341 13.0264 75.7562 12.6423 75.8604 12.2842C75.8831 12.1995 75.9043 12.123 75.9238 12.0547C75.9466 11.9831 75.958 11.9131 75.958 11.8447C75.958 11.7861 75.932 11.734 75.8799 11.6885C75.8278 11.6429 75.7643 11.6055 75.6895 11.5762C75.6243 11.5501 75.5527 11.5306 75.4746 11.5176C75.3997 11.5046 75.3444 11.498 75.3086 11.498V11.1855H77.1396V11.498Z" fill="#9AD0C3"/>
<path d="M31 6L25 12M31 6V9.375M31 6H27.625M30.25 12.375V15.6C30.25 16.4401 30.25 16.8602 30.0865 17.181C29.9427 17.4632 29.7132 17.6927 29.431 17.8365C29.1102 18 28.6901 18 27.85 18H21.4C20.5599 18 20.1399 18 19.819 17.8365C19.5368 17.6927 19.3073 17.4632 19.1635 17.181C19 16.8602 19 16.4401 19 15.6V9.15C19 8.30992 19 7.88988 19.1635 7.56902C19.3073 7.28677 19.5368 7.0573 19.819 6.91349C20.1399 6.75 20.5599 6.75 21.4 6.75H24.625" stroke="white" stroke-linecap="round" stroke-linejoin="round"/>
</svg>
